<?xml version="1.0" encoding="utf-8"?>
<!-- Generator: Adobe Illustrator 27.0.0, SVG Export Plug-In . SVG Version: 6.00 Build 0)  -->
<svg version="1.1" id="Layer_1" xmlns="http://www.w3.org/2000/svg" xmlns:xlink="http://www.w3.org/1999/xlink" x="0px" y="0px"
	 viewBox="0 0 720.5 595.3" style="enable-background:new 0 0 720.5 595.3;" xml:space="preserve">
<style type="text/css">
	.st0{fill:#FFFFFF;}
</style>
<g>
	<g>
		<path class="st0" d="M436.7,134c1.4-0.9,2.9-1.9,4.4-2.9c-34.3-19.6-68.5-39.3-102.8-59.3c-34.3-19.9-68.9-39.7-103.9-59.3
			c-34.3,20.3-68.7,40.4-103.3,60.1c-34.7,19.8-69.1,39.8-103.4,60.1v238.8c35,20.4,69.5,40.4,103.6,60.1s69,39.8,104.8,60.1
			c17.4-10.3,34.8-20.6,52.2-30.8c14.8-8.7,29.5-17.3,44.2-25.8c0.1-0.1,0.3-0.2,0.4-0.3c1.9-1.1,3.7-2.1,5.6-3.3
			c34-19.8,68.2-39.8,102.5-60.1l-61-35.6c-23.7,14.3-47.7,28.4-72,42.3c-24.3,13.9-48.9,28-73.7,42.3
			c-18.1-10.2-36.2-20.8-54.2-32.2c-18.1-11.3-36.1-22-54.2-32.2c-6-3.4-12.2-6.8-18.6-10.2s-12.6-6.8-18.6-10.2V168.3
			c24.8-14.3,49.4-28.6,73.7-42.9c24.3-14.3,48.8-28.3,73.7-41.8c23.7,13.6,47.7,27.4,72,41.5s48.3,27.9,72,41.5
			c4.1-2.3,8.1-4.5,12-6.6L436.7,134z"/>
	</g>
	<g>
		<path class="st0" d="M392.2,160c-2,1.2-4,2.3-6,3.5c-34.1,19.8-68.2,39.8-102.5,60.1l61,35.6c23.7-14.3,47.7-28.4,72-42.3
			c24.3-13.9,48.8-28,73.7-42.3c18.1,10.2,36.1,20.9,54.2,32.2c18.1,11.3,36.1,22,54.2,32.2c6,3.4,12.2,6.8,18.6,10.2
			c6.4,3.4,12.6,6.7,18.6,10.2v167.7c-24.9,14.3-49.4,28.6-73.7,42.9c-24.3,14.3-48.8,28.2-73.7,41.8c-23.7-13.6-47.7-27.4-72-41.5
			c-24.3-14.1-48.3-27.9-72-41.5c-3.9,2.2-7.8,4.3-11.6,6.4c-0.1,0.1-0.3,0.2-0.4,0.3c-6.6,3.6-12.9,7.2-19,10.6
			c-8.3,4.6-16.7,9.7-25.3,15.3c-1.6,1-3.1,2.1-4.7,3.1c34.2,19.6,68.5,39.3,102.8,59.3c34.2,19.9,68.9,39.7,103.9,59.2
			c34.3-20.3,68.7-40.4,103.3-60.1c34.6-19.8,69.1-39.8,103.4-60.1V223.7c-35-20.3-69.5-40.4-103.6-60.1s-69-39.8-104.8-60.1
			c-17.3,10.3-34.6,20.5-51.9,30.6L392.2,160z"/>
	</g>
</g>
</svg>
